Coordinates
version=1
nRows=4
nColumns=63
inDegrees=yes

Units are S.I. units (second, meters, Newtons, ...)
If the header above contains a line with 'inDegrees', this indicates whether rotational values are in degrees (yes) or radians (no).

endheader
time	pelvis_tilt	pelvis_list	pelvis_rotation	pelvis_tx	pelvis_ty	pelvis_tz	hip_flexion_r	hip_adduction_r	hip_rotation_r	knee_angle_r	knee_angle_r_beta	ankle_angle_r	subtalar_angle_r	mtp_angle_r	hip_flexion_l	hip_adduction_l	hip_rotation_l	knee_angle_l	knee_angle_l_beta	ankle_angle_l	subtalar_angle_l	mtp_angle_l	L5_S1_Flex_Ext	L5_S1_Lat_Bending	L5_S1_axial_rotation	L4_L5_Flex_Ext	L4_L5_Lat_Bending	L4_L5_axial_rotation	L3_L4_Flex_Ext	L3_L4_Lat_Bending	L3_L4_axial_rotation	L2_L3_Flex_Ext	L2_L3_Lat_Bending	L2_L3_axial_rotation	L1_L2_Flex_Ext	L1_L2_Lat_Bending	L1_L2_axial_rotation	L1_T12_Flex_Ext	L1_T12_Lat_Bending	L1_T12_axial_rotation	Abs_r3	Abs_r2	Abs_r1	Abs_t1	Abs_t2	neck_flexion	neck_bending	neck_rotation	arm_flex_r	arm_add_r	arm_rot_r	elbow_flex_r	pro_sup_r	wrist_flex_r	wrist_dev_r	arm_flex_l	arm_add_l	arm_rot_l	elbow_flex_l	pro_sup_l	wrist_flex_l	wrist_dev_l
      3.22033898	      0.66707598	     -5.08746491	     83.74558604	      0.20590220	      0.65082650	      0.64110749	      6.59871048	      2.23691006	      1.58160665	      4.28266159	      0.07474655	     20.50488463	      1.90141338	      0.00000000	      5.62167494	     -2.98537011	     -3.83123126	      1.25311380	      0.02187096	     25.49932608	      1.72066721	      0.00000000	      0.02620465	      0.74753579	     -0.23906249	      0.04866465	      0.99422260	     -0.25400390	      0.04305162	      1.81755851	     -0.25400390	      0.02994929	      1.81755851	     -0.20917968	      0.02433364	      1.52437498	     -0.19423828	      0.01497334	      1.15793293	     -0.17929687	      0.18717719	      8.45627432	     -1.32959388	      0.00000000	      0.00000000	     19.64228946	    -10.24913734	     15.57305341	     11.70784933	    -16.60088801	     46.17215905	     25.34475245	     62.62326311	     -6.88192208	      2.90783569	     16.39159776	     -6.27646402	    152.57827513	      1.12413166	     14.03134083	    -12.11855553	    -11.65130487
      3.23728814	      0.52879402	     -5.08534092	     83.94295563	      0.20568024	      0.65097078	      0.64061830	      6.53737806	      2.05805674	      1.66443073	      4.30734308	      0.07517732	     20.29201669	      1.78794204	      0.00000000	      5.63453558	     -2.81535317	     -3.90897663	      1.27106554	      0.02218428	     25.45169255	      1.84605460	      0.00000000	      0.04896585	      0.73109677	     -0.29795382	      0.09093448	      0.97235870	     -0.31657593	      0.08044599	      1.77758869	     -0.31657593	      0.05596307	      1.77758869	     -0.26070959	      0.04546969	      1.49085253	     -0.24208748	      0.02797909	      1.13246890	     -0.22346536	      0.34975816	      8.27031289	     -1.65712974	      0.00000000	      0.00000000	     19.36969276	    -10.50816587	     14.82357711	     12.21413828	    -16.56300271	     47.83846710	     24.95095111	     64.36754129	     -7.77181842	      1.98403529	     16.37099193	     -6.33364802	    151.45688215	      1.12511783	     12.75948268	    -10.68655731	    -12.60338877
      3.25423729	      0.46235695	     -5.09559905	     84.14918860	      0.20542248	      0.65099768	      0.64093018	      6.49975331	      1.98726363	      2.55687037	      4.27130751	      0.07454838	     19.75075922	      0.54330168	      0.00000000	      5.74104118	     -2.75269848	     -4.74262579	      1.35926921	      0.02372372	     25.62036140	      3.05721120	      0.00000000	      0.06245314	      0.72660271	     -0.39045349	      0.11598172	      0.96638160	     -0.41485683	      0.10260426	      1.76666183	     -0.41485683	      0.07137769	      1.76666183	     -0.34164680	      0.05799398	      1.48168824	     -0.31724346	      0.03568572	      1.12550760	     -0.29284012	      0.44609651	      8.21947517	     -2.17158517	      0.00000000	      0.00000000	     19.25506574	    -10.25204470	     15.29916632	     12.76490283	    -16.52765944	     49.13675702	     24.82423145	     65.56348379	     -8.68791706	      1.54102095	     16.41161683	     -6.48272724	    150.31707389	      1.00703485	     11.01230019	     -7.61287848	    -13.77123303
      3.27118644	      0.38062860	     -5.13194178	     84.32622963	      0.20492352	      0.65085675	      0.64153683	      6.54754101	      1.88462573	      3.14340060	      4.31048184	      0.07523210	     19.39686098	     -0.31301131	      0.00000000	      5.89154773	     -2.65114862	     -4.94974645	      1.43328827	      0.02501560	     25.66443247	      3.30164401	      0.00000000	      0.08147160	      0.72114944	     -0.44818119	      0.15130090	      0.95912875	     -0.47619251	      0.13384969	      1.75340274	     -0.47619251	      0.09311389	      1.75340274	     -0.39215854	      0.07565452	      1.47056793	     -0.36414721	      0.04655287	      1.11706048	     -0.33613589	      0.58194347	      8.15778665	     -2.49264931	      0.00000000	      0.00000000	     18.97654733	     -9.97715641	     15.80210140	     12.70713726	    -16.54014114	     47.53858819	     25.28894507	     69.69944952	     -9.13329907	      1.76667687	     16.41280431	     -6.45668690	    150.49799721	      1.01819513	      9.30756422	     -7.57044828	    -14.08788774
